<mxfile host="Electron" agent="Mozilla/5.0 (Windows NT 10.0; Win64; x64) AppleWebKit/537.36 (KHTML, like Gecko) draw.io/28.0.4 Chrome/138.0.7204.97 Electron/37.2.1 Safari/537.36" version="28.0.4">
  <diagram name="Data Architect" id="ZKHFTnqkq97zHhutwcBL">
    <mxGraphModel dx="1042" dy="660" grid="1" gridSize="10" guides="1" tooltips="1" connect="1" arrows="1" fold="1" page="1" pageScale="1" pageWidth="850" pageHeight="1100" math="0" shadow="0">
      <root>
        <mxCell id="0" />
        <mxCell id="1" parent="0" />
        <mxCell id="cVgVuKDJ5G9zm706lPru-1" value="&amp;nbsp;" style="rounded=0;whiteSpace=wrap;html=1;fillColor=none;dashed=1;strokeColor=light-dark(#5f5959, #ededed);" parent="1" vertex="1">
          <mxGeometry x="10" y="120" width="110" height="560" as="geometry" />
        </mxCell>
        <mxCell id="cVgVuKDJ5G9zm706lPru-2" value="sources" style="rounded=0;whiteSpace=wrap;html=1;fontSize=24;fontStyle=0;fillColor=none;strokeColor=none;fontFamily=Times New Roman;" parent="1" vertex="1">
          <mxGeometry x="25" y="100" width="90" height="20" as="geometry" />
        </mxCell>
        <mxCell id="cVgVuKDJ5G9zm706lPru-3" value="" style="rounded=0;whiteSpace=wrap;html=1;fillColor=none;dashed=1;strokeColor=light-dark(#5f5959, #ededed);" parent="1" vertex="1">
          <mxGeometry x="140" y="120" width="420" height="560" as="geometry" />
        </mxCell>
        <mxCell id="cVgVuKDJ5G9zm706lPru-4" value="Data Warehouse" style="rounded=0;whiteSpace=wrap;html=1;fontSize=24;fontStyle=0;fillColor=none;strokeColor=none;fontFamily=Times New Roman;" parent="1" vertex="1">
          <mxGeometry x="280" y="95" width="210" height="30" as="geometry" />
        </mxCell>
        <mxCell id="cVgVuKDJ5G9zm706lPru-5" value="" style="rounded=0;whiteSpace=wrap;html=1;fillColor=none;dashed=1;strokeColor=light-dark(#5f5959, #ededed);" parent="1" vertex="1">
          <mxGeometry x="600" y="120" width="120" height="560" as="geometry" />
        </mxCell>
        <mxCell id="cVgVuKDJ5G9zm706lPru-6" value="Consumer" style="rounded=0;whiteSpace=wrap;html=1;fontSize=24;fontStyle=0;fillColor=none;strokeColor=none;fontFamily=Times New Roman;" parent="1" vertex="1">
          <mxGeometry x="605" y="100" width="90" height="20" as="geometry" />
        </mxCell>
        <mxCell id="cVgVuKDJ5G9zm706lPru-7" value="Bronze Layer" style="rounded=0;whiteSpace=wrap;html=1;fillColor=#ffe6cc;strokeColor=#d79b00;fontSize=20;fontStyle=1;fontFamily=Times New Roman;" parent="1" vertex="1">
          <mxGeometry x="170" y="130" width="130" height="30" as="geometry" />
        </mxCell>
        <mxCell id="cVgVuKDJ5G9zm706lPru-9" value="Bronze Layer" style="rounded=0;whiteSpace=wrap;html=1;fillColor=none;strokeColor=#4D4D4D;fontSize=20;fontStyle=1;fontColor=none;noLabel=1;" parent="1" vertex="1">
          <mxGeometry x="170" y="160" width="130" height="480" as="geometry" />
        </mxCell>
        <mxCell id="cVgVuKDJ5G9zm706lPru-11" value="Bronze Layer" style="rounded=0;whiteSpace=wrap;html=1;fillColor=none;strokeColor=none;fontSize=20;fontStyle=1;fontColor=none;noLabel=1;" parent="1" vertex="1">
          <mxGeometry x="310" y="160" width="120" height="360" as="geometry" />
        </mxCell>
        <mxCell id="cVgVuKDJ5G9zm706lPru-12" value="Bronze Layer" style="rounded=0;whiteSpace=wrap;html=1;fillColor=none;strokeColor=#666666;fontSize=20;fontStyle=1;fontColor=none;noLabel=1;" parent="1" vertex="1">
          <mxGeometry x="440" y="160" width="110" height="480" as="geometry" />
        </mxCell>
        <mxCell id="cVgVuKDJ5G9zm706lPru-13" value="Silver Layer" style="rounded=0;whiteSpace=wrap;html=1;fillColor=#f5f5f5;strokeColor=#666666;fontSize=20;fontStyle=1;fontColor=#333333;fontFamily=Times New Roman;" parent="1" vertex="1">
          <mxGeometry x="310" y="130" width="120" height="30" as="geometry" />
        </mxCell>
        <mxCell id="cVgVuKDJ5G9zm706lPru-14" value="Gold Layer" style="rounded=0;whiteSpace=wrap;html=1;fillColor=#fff2cc;strokeColor=#d6b656;fontSize=20;fontStyle=1;fontFamily=Times New Roman;" parent="1" vertex="1">
          <mxGeometry x="440" y="130" width="110" height="30" as="geometry" />
        </mxCell>
        <mxCell id="cVgVuKDJ5G9zm706lPru-15" value="" style="image;aspect=fixed;html=1;points=[];align=center;fontSize=12;image=img/lib/azure2/general/Folder_Blank.svg;" parent="1" vertex="1">
          <mxGeometry x="25" y="180" width="44.36" height="36" as="geometry" />
        </mxCell>
        <mxCell id="cVgVuKDJ5G9zm706lPru-16" value="" style="image;aspect=fixed;html=1;points=[];align=center;fontSize=12;image=img/lib/azure2/general/File.svg;" parent="1" vertex="1">
          <mxGeometry x="45.01" y="200" width="24.35" height="30" as="geometry" />
        </mxCell>
        <mxCell id="cVgVuKDJ5G9zm706lPru-17" value="" style="image;aspect=fixed;html=1;points=[];align=center;fontSize=12;image=img/lib/azure2/general/Folder_Blank.svg;" parent="1" vertex="1">
          <mxGeometry x="25" y="300" width="44.36" height="36" as="geometry" />
        </mxCell>
        <mxCell id="cVgVuKDJ5G9zm706lPru-18" value="" style="image;aspect=fixed;html=1;points=[];align=center;fontSize=12;image=img/lib/azure2/general/File.svg;" parent="1" vertex="1">
          <mxGeometry x="45.01" y="320" width="24.35" height="30" as="geometry" />
        </mxCell>
        <mxCell id="cVgVuKDJ5G9zm706lPru-19" value="&lt;font size=&quot;1&quot;&gt;&lt;b&gt;CRM&lt;/b&gt;&lt;/font&gt;" style="rounded=1;whiteSpace=wrap;html=1;align=left;strokeColor=none;" parent="1" vertex="1">
          <mxGeometry x="12.18" y="230" width="90" height="30" as="geometry" />
        </mxCell>
        <mxCell id="cVgVuKDJ5G9zm706lPru-20" value="&lt;font size=&quot;1&quot;&gt;&lt;b&gt;ERP&lt;/b&gt;&lt;/font&gt;" style="rounded=1;whiteSpace=wrap;html=1;align=left;strokeColor=none;" parent="1" vertex="1">
          <mxGeometry x="12.18" y="360" width="90" height="30" as="geometry" />
        </mxCell>
        <mxCell id="cVgVuKDJ5G9zm706lPru-23" value="" style="line;strokeWidth=2;html=1;strokeColor=#666666;dashed=1;dashPattern=1 1;" parent="1" vertex="1">
          <mxGeometry x="12.18" y="390" width="107.82" height="10" as="geometry" />
        </mxCell>
        <mxCell id="cVgVuKDJ5G9zm706lPru-25" value="" style="edgeStyle=orthogonalEdgeStyle;rounded=0;orthogonalLoop=1;jettySize=auto;html=1;strokeColor=none;" parent="1" source="cVgVuKDJ5G9zm706lPru-24" target="cVgVuKDJ5G9zm706lPru-23" edge="1">
          <mxGeometry relative="1" as="geometry" />
        </mxCell>
        <mxCell id="cVgVuKDJ5G9zm706lPru-24" value="&lt;b&gt;Object Type&lt;/b&gt; :CSV Files&lt;div&gt;&lt;br&gt;&lt;/div&gt;&lt;div&gt;&lt;b&gt;Interface &lt;/b&gt;:&amp;nbsp;&lt;/div&gt;&lt;div&gt;Files in Folders&lt;/div&gt;" style="text;html=1;align=center;verticalAlign=middle;whiteSpace=wrap;rounded=0;" parent="1" vertex="1">
          <mxGeometry x="9.18" y="450" width="93" height="30" as="geometry" />
        </mxCell>
        <mxCell id="cVgVuKDJ5G9zm706lPru-26" value="" style="image;html=1;image=img/lib/clip_art/computers/Database_128x128.png" parent="1" vertex="1">
          <mxGeometry x="195" y="230" width="80" height="60" as="geometry" />
        </mxCell>
        <mxCell id="cVgVuKDJ5G9zm706lPru-27" value="" style="image;html=1;image=img/lib/clip_art/computers/Database_128x128.png" parent="1" vertex="1">
          <mxGeometry x="320" y="230" width="80" height="62" as="geometry" />
        </mxCell>
        <mxCell id="cVgVuKDJ5G9zm706lPru-28" value="" style="image;html=1;image=img/lib/clip_art/computers/Database_128x128.png" parent="1" vertex="1">
          <mxGeometry x="447.5" y="230" width="80" height="60" as="geometry" />
        </mxCell>
        <mxCell id="cVgVuKDJ5G9zm706lPru-34" value="" style="shape=singleArrow;whiteSpace=wrap;html=1;fillColor=#008a00;strokeColor=#005700;fontColor=#ffffff;arrowWidth=0.5500015258789063;arrowSize=0.6;" parent="1" vertex="1">
          <mxGeometry x="280" y="310" width="30" height="30" as="geometry" />
        </mxCell>
        <mxCell id="cVgVuKDJ5G9zm706lPru-36" value="&lt;b&gt;&lt;font style=&quot;font-size: 15px;&quot;&gt;Raw Data&lt;/font&gt;&lt;/b&gt;" style="text;html=1;align=center;verticalAlign=middle;whiteSpace=wrap;rounded=0;" parent="1" vertex="1">
          <mxGeometry x="205" y="310" width="60" height="30" as="geometry" />
        </mxCell>
        <mxCell id="cVgVuKDJ5G9zm706lPru-37" value="&lt;span style=&quot;font-size: 15px;&quot;&gt;&lt;b&gt;Clean&lt;/b&gt;&lt;/span&gt;&lt;div&gt;&lt;span style=&quot;font-size: 15px;&quot;&gt;&lt;b&gt;Starndardized data&lt;/b&gt;&lt;/span&gt;&lt;/div&gt;" style="text;html=1;align=center;verticalAlign=middle;whiteSpace=wrap;rounded=0;" parent="1" vertex="1">
          <mxGeometry x="335" y="320" width="65" height="30" as="geometry" />
        </mxCell>
        <mxCell id="cVgVuKDJ5G9zm706lPru-39" value="&lt;span style=&quot;font-size: 15px;&quot;&gt;&lt;b&gt;Business Ready&lt;/b&gt;&lt;/span&gt;&lt;div&gt;&lt;span style=&quot;font-size: 15px;&quot;&gt;&lt;b&gt;Data&lt;/b&gt;&lt;/span&gt;&lt;/div&gt;" style="text;html=1;align=center;verticalAlign=middle;whiteSpace=wrap;rounded=0;" parent="1" vertex="1">
          <mxGeometry x="462.5" y="320" width="65" height="30" as="geometry" />
        </mxCell>
        <mxCell id="cVgVuKDJ5G9zm706lPru-40" value="" style="shape=singleArrow;whiteSpace=wrap;html=1;fillColor=#008a00;strokeColor=#005700;fontColor=#ffffff;arrowWidth=0.5500015258789063;arrowSize=0.6;" parent="1" vertex="1">
          <mxGeometry x="425" y="315" width="30" height="30" as="geometry" />
        </mxCell>
        <mxCell id="cVgVuKDJ5G9zm706lPru-42" value="Bronze Layer" style="rounded=0;whiteSpace=wrap;html=1;fillColor=none;strokeColor=default;fontSize=20;fontStyle=1;fontColor=none;noLabel=1;dashed=1;dashPattern=1 1;" parent="1" vertex="1">
          <mxGeometry x="310" y="160" width="120" height="480" as="geometry" />
        </mxCell>
        <mxCell id="cVgVuKDJ5G9zm706lPru-44" value="" style="shape=singleArrow;whiteSpace=wrap;html=1;fillColor=#008a00;strokeColor=#005700;fontColor=#ffffff;arrowWidth=0.5500015258789063;arrowSize=0.6;" parent="1" vertex="1">
          <mxGeometry x="560" y="315" width="30" height="30" as="geometry" />
        </mxCell>
        <mxCell id="cVgVuKDJ5G9zm706lPru-45" value="" style="shape=singleArrow;whiteSpace=wrap;html=1;fillColor=#008a00;strokeColor=#005700;fontColor=#ffffff;arrowWidth=0.5500015258789063;arrowSize=0.6;" parent="1" vertex="1">
          <mxGeometry x="130" y="310" width="30" height="30" as="geometry" />
        </mxCell>
        <mxCell id="cVgVuKDJ5G9zm706lPru-46" value="" style="line;strokeWidth=2;html=1;strokeColor=#666666;dashed=1;dashPattern=1 1;" parent="1" vertex="1">
          <mxGeometry x="170" y="360" width="130" height="10" as="geometry" />
        </mxCell>
        <mxCell id="cVgVuKDJ5G9zm706lPru-47" value="" style="line;strokeWidth=2;html=1;strokeColor=#666666;dashed=1;dashPattern=1 1;" parent="1" vertex="1">
          <mxGeometry x="310" y="360" width="120" height="10" as="geometry" />
        </mxCell>
        <mxCell id="cVgVuKDJ5G9zm706lPru-48" value="" style="line;strokeWidth=2;html=1;strokeColor=#666666;dashed=1;dashPattern=1 1;" parent="1" vertex="1">
          <mxGeometry x="440" y="360" width="107.82" height="10" as="geometry" />
        </mxCell>
        <mxCell id="cVgVuKDJ5G9zm706lPru-49" value="&lt;b&gt;Object Type&lt;/b&gt;&amp;nbsp;&lt;b&gt;:&lt;/b&gt;&amp;nbsp;&lt;b&gt;Tables&lt;/b&gt;&lt;div&gt;&lt;ul&gt;&lt;li&gt;Batch Processing&lt;/li&gt;&lt;li&gt;Full Load&lt;/li&gt;&lt;li&gt;Truncate &amp;amp; Insert&lt;/li&gt;&lt;/ul&gt;&lt;div&gt;&lt;b&gt;No Transformations&lt;/b&gt;&lt;/div&gt;&lt;div&gt;&lt;b&gt;&lt;br&gt;&lt;/b&gt;&lt;/div&gt;&lt;div&gt;&lt;b&gt;Data Model:&lt;/b&gt;&lt;/div&gt;&lt;div&gt;&lt;span style=&quot;background-color: transparent; color: light-dark(rgb(0, 0, 0), rgb(255, 255, 255));&quot;&gt;None(as-is)&lt;/span&gt;&lt;/div&gt;&lt;/div&gt;" style="text;html=1;align=left;verticalAlign=middle;whiteSpace=wrap;rounded=0;" parent="1" vertex="1">
          <mxGeometry x="180" y="450" width="95" height="30" as="geometry" />
        </mxCell>
        <mxCell id="cVgVuKDJ5G9zm706lPru-52" value="&lt;b style=&quot;background-color: transparent; color: light-dark(rgb(0, 0, 0), rgb(255, 255, 255));&quot;&gt;Object Type&lt;/b&gt;&lt;span style=&quot;background-color: transparent; color: light-dark(rgb(0, 0, 0), rgb(255, 255, 255));&quot;&gt;&amp;nbsp;&lt;/span&gt;&lt;b style=&quot;background-color: transparent; color: light-dark(rgb(0, 0, 0), rgb(255, 255, 255));&quot;&gt;:Tables&lt;/b&gt;&lt;br&gt;&lt;b&gt;&lt;br&gt;&lt;/b&gt;&lt;b style=&quot;background-color: transparent; color: light-dark(rgb(0, 0, 0), rgb(255, 255, 255));&quot;&gt;Load:&amp;nbsp; -&amp;nbsp;&lt;/b&gt;&lt;span style=&quot;background-color: transparent; color: light-dark(rgb(0, 0, 0), rgb(255, 255, 255));&quot;&gt;Batch&amp;nbsp; &amp;nbsp; &amp;nbsp; &amp;nbsp; &amp;nbsp; &amp;nbsp; &amp;nbsp; &amp;nbsp; &amp;nbsp; &amp;nbsp;Processing&lt;/span&gt;&lt;br&gt;&lt;span style=&quot;background-color: transparent; color: light-dark(rgb(0, 0, 0), rgb(255, 255, 255));&quot;&gt;&amp;nbsp; &amp;nbsp; &amp;nbsp; &amp;nbsp;Full Load&lt;/span&gt;&lt;br&gt;&lt;span style=&quot;background-color: transparent; color: light-dark(rgb(0, 0, 0), rgb(255, 255, 255));&quot;&gt;&amp;nbsp; &amp;nbsp; &amp;nbsp; &amp;nbsp; &amp;nbsp;Truncate &amp;amp;&amp;nbsp; &amp;nbsp; &amp;nbsp; &amp;nbsp; &amp;nbsp; &amp;nbsp; &amp;nbsp; &amp;nbsp;Insert&lt;/span&gt;&lt;div&gt;&lt;br&gt;&lt;b style=&quot;background-color: transparent; color: light-dark(rgb(0, 0, 0), rgb(255, 255, 255));&quot;&gt;Transformations:&lt;/b&gt;&lt;/div&gt;&lt;div&gt;&lt;b&gt;&lt;br&gt;&lt;/b&gt;&lt;div style=&quot;text-align: center;&quot;&gt;&lt;span style=&quot;background-color: transparent; color: light-dark(rgb(0, 0, 0), rgb(255, 255, 255));&quot;&gt;Data Cleaning&lt;/span&gt;&lt;/div&gt;&lt;span style=&quot;background-color: transparent; color: light-dark(rgb(0, 0, 0), rgb(255, 255, 255));&quot;&gt;&lt;div style=&quot;text-align: center;&quot;&gt;&lt;span style=&quot;background-color: transparent; color: light-dark(rgb(0, 0, 0), rgb(255, 255, 255));&quot;&gt;Data Standardization&lt;/span&gt;&lt;/div&gt;&lt;/span&gt;&lt;span style=&quot;background-color: transparent; color: light-dark(rgb(0, 0, 0), rgb(255, 255, 255));&quot;&gt;&lt;div style=&quot;text-align: center;&quot;&gt;&lt;span style=&quot;background-color: transparent; color: light-dark(rgb(0, 0, 0), rgb(255, 255, 255));&quot;&gt;Data Enrichnen&lt;/span&gt;&lt;span style=&quot;background-color: transparent; color: light-dark(rgb(0, 0, 0), rgb(255, 255, 255));&quot;&gt;t&lt;/span&gt;&lt;/div&gt;&lt;div style=&quot;text-align: center;&quot;&gt;&lt;span style=&quot;background-color: transparent; color: light-dark(rgb(0, 0, 0), rgb(255, 255, 255));&quot;&gt;&lt;br&gt;&lt;/span&gt;&lt;/div&gt;&lt;div style=&quot;&quot;&gt;&lt;span style=&quot;background-color: transparent; color: light-dark(rgb(0, 0, 0), rgb(255, 255, 255));&quot;&gt;&lt;b&gt;Data Model :&lt;/b&gt;&lt;/span&gt;&lt;/div&gt;&lt;div style=&quot;&quot;&gt;&lt;span style=&quot;background-color: transparent; color: light-dark(rgb(0, 0, 0), rgb(255, 255, 255));&quot;&gt;&lt;b&gt;&amp;nbsp;&amp;nbsp;&lt;/b&gt;None (as is)&lt;/span&gt;&lt;/div&gt;&lt;/span&gt;&lt;div&gt;&lt;div style=&quot;&quot;&gt;&lt;/div&gt;&lt;div&gt;&lt;div style=&quot;&quot;&gt;&lt;/div&gt;&lt;div&gt;&lt;br&gt;&lt;/div&gt;&lt;/div&gt;&lt;/div&gt;&lt;/div&gt;" style="text;html=1;align=left;verticalAlign=middle;whiteSpace=wrap;rounded=0;" parent="1" vertex="1">
          <mxGeometry x="322" y="495" width="108" height="20" as="geometry" />
        </mxCell>
        <mxCell id="cVgVuKDJ5G9zm706lPru-53" value="&lt;b style=&quot;background-color: transparent; color: light-dark(rgb(0, 0, 0), rgb(255, 255, 255));&quot;&gt;Object Type&lt;/b&gt;&lt;span style=&quot;background-color: transparent; color: light-dark(rgb(0, 0, 0), rgb(255, 255, 255));&quot;&gt;&amp;nbsp;&lt;/span&gt;&lt;b style=&quot;background-color: transparent; color: light-dark(rgb(0, 0, 0), rgb(255, 255, 255));&quot;&gt;:Views&lt;/b&gt;&lt;div&gt;&lt;b&gt;&lt;br&gt;&lt;/b&gt;&lt;b style=&quot;background-color: transparent; color: light-dark(rgb(0, 0, 0), rgb(255, 255, 255));&quot;&gt;&amp;nbsp;No Load&lt;/b&gt;&lt;/div&gt;&lt;div&gt;&lt;b&gt;&lt;br&gt;&lt;/b&gt;&lt;b style=&quot;background-color: transparent; color: light-dark(rgb(0, 0, 0), rgb(255, 255, 255));&quot;&gt;Transformations:&lt;/b&gt;&lt;/div&gt;&lt;div&gt;&lt;b&gt;&lt;br&gt;&lt;/b&gt;&lt;div style=&quot;&quot;&gt;&lt;span style=&quot;background-color: transparent; color: light-dark(rgb(0, 0, 0), rgb(255, 255, 255));&quot;&gt;Data Intergration&lt;/span&gt;&lt;/div&gt;&lt;span style=&quot;background-color: transparent; color: light-dark(rgb(0, 0, 0), rgb(255, 255, 255));&quot;&gt;&lt;div style=&quot;&quot;&gt;&lt;span style=&quot;background-color: transparent; color: light-dark(rgb(0, 0, 0), rgb(255, 255, 255));&quot;&gt;Data Aggregations&lt;/span&gt;&lt;/div&gt;&lt;/span&gt;&lt;span style=&quot;background-color: transparent; color: light-dark(rgb(0, 0, 0), rgb(255, 255, 255));&quot;&gt;&lt;div style=&quot;&quot;&gt;Business Logics&lt;/div&gt;&lt;div style=&quot;&quot;&gt;&lt;br&gt;&lt;/div&gt;&lt;div style=&quot;&quot;&gt;&lt;span style=&quot;background-color: transparent; color: light-dark(rgb(0, 0, 0), rgb(255, 255, 255));&quot;&gt;&lt;b&gt;Data Model :&lt;/b&gt;&lt;/span&gt;&lt;/div&gt;&lt;div style=&quot;&quot;&gt;&lt;ul&gt;&lt;li style=&quot;&quot;&gt;Star Schema&lt;/li&gt;&lt;li style=&quot;&quot;&gt;Flat Table&lt;/li&gt;&lt;li style=&quot;&quot;&gt;Aggregated Table&lt;/li&gt;&lt;/ul&gt;&lt;/div&gt;&lt;/span&gt;&lt;/div&gt;" style="text;html=1;align=left;verticalAlign=middle;whiteSpace=wrap;rounded=0;" parent="1" vertex="1">
          <mxGeometry x="445" y="480" width="100" height="50" as="geometry" />
        </mxCell>
        <mxCell id="cVgVuKDJ5G9zm706lPru-55" value="" style="sketch=0;outlineConnect=0;fontColor=#ffffff;fillColor=#1ba1e2;strokeColor=#006EAF;dashed=0;verticalLabelPosition=bottom;verticalAlign=top;align=center;html=1;fontSize=12;fontStyle=0;aspect=fixed;pointerEvents=1;shape=mxgraph.aws4.rds_postgresql_instance;" parent="1" vertex="1">
          <mxGeometry x="240" y="70" width="50" height="50" as="geometry" />
        </mxCell>
        <mxCell id="cVgVuKDJ5G9zm706lPru-56" value="" style="verticalLabelPosition=bottom;html=1;verticalAlign=top;align=center;strokeColor=none;fillColor=#00BEF2;shape=mxgraph.azure.azure_instance;" parent="1" vertex="1">
          <mxGeometry x="620" y="160" width="50" height="50" as="geometry" />
        </mxCell>
        <mxCell id="cVgVuKDJ5G9zm706lPru-57" value="" style="points=[];aspect=fixed;html=1;align=center;shadow=0;dashed=0;fillColor=#FF6A00;strokeColor=none;shape=mxgraph.alibaba_cloud.petadata_hybriddb_for_mysql;" parent="1" vertex="1">
          <mxGeometry x="617" y="439" width="56.699999999999996" height="56.1" as="geometry" />
        </mxCell>
        <mxCell id="cVgVuKDJ5G9zm706lPru-58" value="" style="points=[];aspect=fixed;html=1;align=center;shadow=0;dashed=0;fillColor=#FF6A00;strokeColor=none;shape=mxgraph.alibaba_cloud.postgresql;" parent="1" vertex="1">
          <mxGeometry x="617" y="298" width="48" height="47.7" as="geometry" />
        </mxCell>
        <mxCell id="cVgVuKDJ5G9zm706lPru-59" value="&lt;b&gt;SQL Postgre Queries&lt;/b&gt;" style="text;html=1;align=center;verticalAlign=middle;whiteSpace=wrap;rounded=0;" parent="1" vertex="1">
          <mxGeometry x="610" y="360" width="60" height="30" as="geometry" />
        </mxCell>
        <mxCell id="cVgVuKDJ5G9zm706lPru-60" value="&lt;b&gt;Machine Learning&lt;/b&gt;" style="text;html=1;align=center;verticalAlign=middle;whiteSpace=wrap;rounded=0;" parent="1" vertex="1">
          <mxGeometry x="610" y="515" width="60" height="30" as="geometry" />
        </mxCell>
        <mxCell id="cVgVuKDJ5G9zm706lPru-61" value="&lt;b&gt;Azure&lt;/b&gt;&lt;div&gt;&lt;b&gt;Instance&lt;/b&gt;&lt;/div&gt;" style="text;html=1;align=center;verticalAlign=middle;whiteSpace=wrap;rounded=0;" parent="1" vertex="1">
          <mxGeometry x="611" y="210" width="60" height="30" as="geometry" />
        </mxCell>
      </root>
    </mxGraphModel>
  </diagram>
</mxfile>
